<svg version="1.2" xmlns="http://www.w3.org/2000/svg" viewBox="0 0 235 236" width="235" height="236"><style>.a{opacity:.97;fill:#f3d25e}</style><path fill-rule="evenodd" class="a" d="m170 27.1c3-0.1 9.1 0.8 13.5 1.9 4.4 1.2 10.9 3.6 14.5 5.5 3.6 1.9 9.3 5.8 12.6 8.7 3.4 2.9 7.9 7.3 9.9 9.8 2.1 2.5 5.5 8.1 7.6 12.5 2 4.4 4.4 11.6 5.3 16 0.9 4.4 1.6 10.2 1.6 13 0 2.7-0.8 9-1.9 14-1.1 5.5-3.1 11.5-5.2 15.4-1.9 3.5-5.6 8.6-8.4 11.4-2.7 2.7-6.8 6-9 7.3-2.2 1.2-7.6 3.5-12 5-7 2.3-9.5 2.6-20 2.6-8.8 0-14.1-0.6-20-2.2-4.4-1.1-10.7-3.3-14-4.8-3.3-1.6-9.2-4.9-13-7.5-3.8-2.5-8.5-5.8-13.5-9.7l-5.2 3.8c-2.9 2.1-7 5.8-9 8.3-2 2.4-5 7.3-6.7 10.9-1.7 3.6-3.7 9.2-4.6 12.5-0.9 3.3-2 12.1-2.5 19.5-0.4 7.5-1.4 15.1-2.2 17-0.8 1.9-2.9 4.7-4.6 6.2-1.8 1.6-4.9 3.3-6.9 3.9-2.1 0.5-6.3 1.3-9.3 1.6-3.6 0.4-8.2 0-13.5-1.2-4.4-1-10.9-3.3-14.5-5.1-3.6-1.8-9.4-5.7-13-8.6-3.6-3-8.6-8.1-11.2-11.3-2.5-3.3-5.8-8.5-7.2-11.5-1.4-3-3.2-8.2-4.1-11.5-0.9-3.3-1.8-9.4-2.1-13.5-0.5-5.6-0.1-10.1 1.5-17.5 1.1-5.5 3.5-12.9 5.2-16.5 1.8-3.7 5.5-9 8.8-12.3 3.3-3.5 8.1-7.1 11.6-8.8 3.3-1.6 8.5-3.6 11.5-4.4 3.1-0.8 9.9-1.5 15.8-1.5 5.8 0 13.3 0.7 17.4 1.6 4 0.9 10.5 3 14.3 4.7 3.8 1.7 9.9 5 13.5 7.3 3.6 2.4 9.3 6.8 19 15.4l6.8-6.8c4.7-4.6 7.8-8.7 9.9-13.2 1.7-3.6 3.8-9.8 4.7-13.8 1.1-4.9 1.6-12 1.6-22.2 0-11.3 0.4-15.9 1.6-18.8 0.8-2 2.7-4.9 4.2-6.5 1.5-1.5 4.7-3.4 7.2-4.2 2.5-0.7 5.4-1.6 6.5-1.8 1.1-0.3 4.5-0.5 7.5-0.6zm-14.4 19.2c-1.3 1.8-2.9 5-3.5 7.2-0.5 2.2-1.5 9.4-2.1 16-0.6 6.6-1.8 14.7-2.6 18-0.9 3.3-3 8.7-4.6 12-2 3.9-5.8 8.7-10.9 13.7l-7.9 7.8c6.6 4.8 11.7 7.8 15.5 9.6 3.8 1.8 9.7 4 13 4.9 3.3 0.8 9.5 1.5 13.8 1.5 4.2 0 10.1-0.5 12.9-1.1 2.9-0.6 8-2.5 11.2-4.3 3.3-1.7 7.9-5.4 10.3-8.1 2.4-2.8 5.4-7.5 6.5-10.5 1.4-3.7 2.2-8.9 2.6-15.5 0.3-7.3 0-11.8-1.2-16.5-0.9-3.6-3.3-9.9-5.4-14-2.1-4.3-6-9.8-9.2-13.1-3.5-3.6-7.7-6.7-11.5-8.5-4.4-2-7.8-2.8-13-3-3.8-0.1-8 0-9.2 0.2-1.2 0.3-3.3 2-4.7 3.7zm-113.1 60.9c-2.7 1.8-6.3 5.1-8 7.3-1.7 2.2-4.1 6.7-5.4 10-1.8 4.4-2.5 8.8-2.9 16.5-0.3 7.8 0 12.2 1.2 17 0.9 3.6 3.1 9.4 4.8 13 1.8 3.6 5.8 9.2 8.9 12.5 3.5 3.8 7.6 6.9 11 8.5 4.3 1.9 7.1 2.4 13.8 2.5 8.3 0 8.3 0 11.2-3.5 1.6-1.9 3.5-6 4.3-9 0.8-3 2-8.9 2.6-13 0.6-4.1 1.8-10.2 2.6-13.5 0.9-3.3 3-8.7 4.7-11.9 1.8-3.3 5-8 7.2-10.5 2.2-2.4 6.6-6.4 9.8-8.8l5.7-4.3c-6.2-5.4-10.4-8.5-13.3-10.3-2.8-1.8-7-4.1-9.2-5-2.2-0.9-6.7-2.4-10-3.2-3.3-0.8-9.6-1.5-14-1.4-4.9 0-10.3 0.7-14 1.9-3.3 1-8.2 3.4-11 5.2z"/></svg>